<mxfile host="app.diagrams.net" modified="2023-06-10T15:16:30.474Z" agent="Mozilla/5.0 (Windows NT 10.0; Win64; x64) AppleWebKit/537.36 (KHTML, like Gecko) Chrome/114.0.0.0 Safari/537.36" etag="hUV5V82RAK_eEikEdDtH" version="21.3.8" type="google">
  <diagram name="PÃ¡gina-1" id="me6IgqCs6L1Hb1rVftVg">
    <mxGraphModel grid="1" page="1" gridSize="10" guides="1" tooltips="1" connect="1" arrows="1" fold="1" pageScale="1" pageWidth="827" pageHeight="1169" math="0" shadow="0">
      <root>
        <mxCell id="0" />
        <mxCell id="1" parent="0" />
        <mxCell id="Gwa6hoIYljziUsFT1R2l-2" value="" style="rounded=0;whiteSpace=wrap;html=1;" vertex="1" parent="1">
          <mxGeometry x="350" y="465" width="120" height="30" as="geometry" />
        </mxCell>
        <mxCell id="Gwa6hoIYljziUsFT1R2l-3" value="&lt;u&gt;:Estudiante&lt;br&gt;&lt;/u&gt;" style="rounded=0;whiteSpace=wrap;html=1;" vertex="1" parent="1">
          <mxGeometry x="340" y="455" width="120" height="30" as="geometry" />
        </mxCell>
        <mxCell id="Gwa6hoIYljziUsFT1R2l-4" value="&lt;u&gt;:Sistema&lt;/u&gt;" style="rounded=0;whiteSpace=wrap;html=1;" vertex="1" parent="1">
          <mxGeometry x="-110" y="455" width="120" height="30" as="geometry" />
        </mxCell>
        <mxCell id="Gwa6hoIYljziUsFT1R2l-5" value="" style="endArrow=none;html=1;rounded=0;exitX=0;exitY=1;exitDx=0;exitDy=0;" edge="1" parent="1" source="Gwa6hoIYljziUsFT1R2l-6">
          <mxGeometry width="50" height="50" relative="1" as="geometry">
            <mxPoint x="-430" y="484.5" as="sourcePoint" />
            <mxPoint x="-110" y="480" as="targetPoint" />
          </mxGeometry>
        </mxCell>
        <mxCell id="Gwa6hoIYljziUsFT1R2l-6" value="res:= selecEstudiante(ci: String)" style="text;html=1;strokeColor=none;fillColor=none;align=center;verticalAlign=middle;whiteSpace=wrap;rounded=0;" vertex="1" parent="1">
          <mxGeometry x="-430" y="460" width="300" height="20" as="geometry" />
        </mxCell>
        <mxCell id="Gwa6hoIYljziUsFT1R2l-7" value="" style="endArrow=none;html=1;rounded=0;exitX=1;exitY=0.75;exitDx=0;exitDy=0;entryX=0;entryY=0.75;entryDx=0;entryDy=0;" edge="1" parent="1" source="Gwa6hoIYljziUsFT1R2l-4" target="Gwa6hoIYljziUsFT1R2l-3">
          <mxGeometry width="50" height="50" relative="1" as="geometry">
            <mxPoint x="200" y="690" as="sourcePoint" />
            <mxPoint x="250" y="640" as="targetPoint" />
          </mxGeometry>
        </mxCell>
        <mxCell id="Gwa6hoIYljziUsFT1R2l-8" value="1: es:=find(ci: String)" style="text;html=1;strokeColor=none;fillColor=none;align=center;verticalAlign=middle;whiteSpace=wrap;rounded=0;" vertex="1" parent="1">
          <mxGeometry x="10" y="440" width="330" height="40" as="geometry" />
        </mxCell>
        <mxCell id="Gwa6hoIYljziUsFT1R2l-12" value="El sistema recuerda la instacia es de Estudiante y lo devuelve en res" style="shape=note;whiteSpace=wrap;html=1;backgroundOutline=1;darkOpacity=0.05;size=10;fillColor=#fff2cc;strokeColor=#d6b656;" vertex="1" parent="1">
          <mxGeometry x="-310" y="510" width="180" height="60" as="geometry" />
        </mxCell>
        <mxCell id="Gwa6hoIYljziUsFT1R2l-13" value="" style="endArrow=none;dashed=1;html=1;dashPattern=1 3;strokeWidth=2;rounded=0;exitX=0;exitY=0;exitDx=130;exitDy=0;exitPerimeter=0;entryX=0;entryY=1;entryDx=0;entryDy=0;" edge="1" parent="1" source="Gwa6hoIYljziUsFT1R2l-12" target="Gwa6hoIYljziUsFT1R2l-4">
          <mxGeometry width="50" height="50" relative="1" as="geometry">
            <mxPoint x="10" y="520" as="sourcePoint" />
            <mxPoint x="60" y="470" as="targetPoint" />
          </mxGeometry>
        </mxCell>
        <mxCell id="Gwa6hoIYljziUsFT1R2l-16" value="" style="endArrow=classic;html=1;rounded=0;entryX=0.691;entryY=0.014;entryDx=0;entryDy=0;entryPerimeter=0;" edge="1" parent="1">
          <mxGeometry width="50" height="50" relative="1" as="geometry">
            <mxPoint x="123" y="440" as="sourcePoint" />
            <mxPoint x="243.72000000000003" y="440" as="targetPoint" />
          </mxGeometry>
        </mxCell>
      </root>
    </mxGraphModel>
  </diagram>
</mxfile>
